<?xml version="1.0" encoding="UTF-8" standalone="no"?>
<svg
   xmlns:osb="http://www.openswatchbook.org/uri/2009/osb"
   xmlns:dc="http://purl.org/dc/elements/1.1/"
   xmlns:cc="http://creativecommons.org/ns#"
   xmlns:rdf="http://www.w3.org/1999/02/22-rdf-syntax-ns#"
   xmlns:svg="http://www.w3.org/2000/svg"
   xmlns="http://www.w3.org/2000/svg"
   xmlns:xlink="http://www.w3.org/1999/xlink"
   xmlns:sodipodi="http://sodipodi.sourceforge.net/DTD/sodipodi-0.dtd"
   xmlns:inkscape="http://www.inkscape.org/namespaces/inkscape"
   version="1.1"
   id="svg2"
   xml:space="preserve"
   width="2725"
   height="2055"
   viewBox="0 0 168.71155 127.23018"
   sodipodi:docname="grattings-maleri.svg"
   inkscape:version="1.0 (4035a4fb49, 2020-05-01)"><sodipodi:namedview
     inkscape:pagecheckerboard="true"
     inkscape:document-rotation="0"
     pagecolor="#ffffff"
     bordercolor="#666666"
     borderopacity="1"
     objecttolerance="10"
     gridtolerance="10"
     guidetolerance="10"
     inkscape:pageopacity="0"
     inkscape:pageshadow="2"
     inkscape:window-width="1920"
     inkscape:window-height="1080"
     id="namedview1343"
     showgrid="false"
     units="px"
     inkscape:zoom="0.38873332"
     inkscape:cx="1036.658"
     inkscape:cy="911.39318"
     inkscape:window-x="0"
     inkscape:window-y="0"
     inkscape:window-maximized="0"
     inkscape:current-layer="svg2" /><metadata
     id="metadata8"><rdf:RDF><cc:Work
         rdf:about=""><dc:format>image/svg+xml</dc:format><dc:type
           rdf:resource="http://purl.org/dc/dcmitype/StillImage" /><dc:title></dc:title></cc:Work></rdf:RDF></metadata><defs
     id="defs6"><rect
       x="228.54678"
       y="180.35921"
       width="310.12146"
       height="160.39578"
       id="rect1229" /><linearGradient
       id="linearGradient1161"><stop
         style="stop-color:#0040a4;stop-opacity:1;"
         offset="0"
         id="stop1157" /><stop
         style="stop-color:#0040a4;stop-opacity:0;"
         offset="1"
         id="stop1159" /></linearGradient><linearGradient
       id="linearGradient11174"
       osb:paint="solid"><stop
         style="stop-color:#000000;stop-opacity:1;"
         offset="0"
         id="stop11172" /></linearGradient><linearGradient
       id="linearGradient11108"
       osb:paint="gradient"><stop
         style="stop-color:#ff2a2a;stop-opacity:1;"
         offset="0"
         id="stop11104" /><stop
         style="stop-color:#ff2a2a;stop-opacity:0;"
         offset="1"
         id="stop11106" /></linearGradient><linearGradient
       id="linearGradient9166"
       osb:paint="gradient"><stop
         style="stop-color:#ff2a2a;stop-opacity:1;"
         offset="0"
         id="stop9162" /><stop
         style="stop-color:#ff2a2a;stop-opacity:0;"
         offset="1"
         id="stop9164" /></linearGradient><clipPath
       clipPathUnits="userSpaceOnUse"
       id="clipPath22"><path
         d="M 1012.5,688.32 1119.8,813.313 784.668,1100.98 677.344,975.996 1012.5,688.32"
         id="path20" /></clipPath><linearGradient
       x1="0"
       y1="0"
       x2="1"
       y2="0"
       gradientUnits="userSpaceOnUse"
       gradientTransform="matrix(-196.87134,-231.28573,670.54254,-580.46032,1069.6012,1675.5958)"
       spreadMethod="pad"
       id="linearGradient38"><stop
         style="stop-opacity:1;stop-color:#ffffff"
         offset="0"
         id="stop24" /><stop
         style="stop-opacity:1;stop-color:#cdeee7"
         offset="0.0949366"
         id="stop26" /><stop
         style="stop-opacity:1;stop-color:#cdeee7"
         offset="0.472527"
         id="stop28" /><stop
         style="stop-opacity:1;stop-color:#c8ece4"
         offset="0.5"
         id="stop30" /><stop
         style="stop-opacity:1;stop-color:#c1eae1"
         offset="0.527473"
         id="stop32" /><stop
         style="stop-opacity:1;stop-color:#88b6b4"
         offset="0.87044555"
         id="stop34" /><stop
         style="stop-opacity:1;stop-color:#88b6b4"
         offset="1"
         id="stop36" /></linearGradient><clipPath
       clipPathUnits="userSpaceOnUse"
       id="clipPath48"><path
         d="m 686.582,997.887 c 3.066,-2.594 7.656,-2.235 10.234,0.781 l 68.379,79.652 c 2.618,3.06 2.266,7.62 -0.761,10.23 v 0 c -3.047,2.61 -7.618,2.25 -10.215,-0.79 l -68.399,-79.65 c -2.617,-3.03 -2.246,-7.61 0.762,-10.223 v 0"
         id="path46" /></clipPath><linearGradient
       x1="0"
       y1="0"
       x2="1"
       y2="0"
       gradientUnits="userSpaceOnUse"
       gradientTransform="matrix(-142.79685,-167.7581,75.882203,-65.688152,1022.3757,1661.2947)"
       spreadMethod="pad"
       id="linearGradient60"><stop
         style="stop-opacity:1;stop-color:#393637"
         offset="0"
         id="stop50" /><stop
         style="stop-opacity:1;stop-color:#a7a5a6"
         offset="0.164835"
         id="stop52" /><stop
         style="stop-opacity:1;stop-color:#f4f4f4"
         offset="0.225275"
         id="stop54" /><stop
         style="stop-opacity:1;stop-color:#918f90"
         offset="0.269231"
         id="stop56" /><stop
         style="stop-opacity:1;stop-color:#4f4c4d"
         offset="1"
         id="stop58" /></linearGradient><clipPath
       clipPathUnits="userSpaceOnUse"
       id="clipPath70"><path
         d="m 1032.73,700.742 c -3.02,2.637 -3.35,7.188 -0.76,10.242 l 68.38,79.661 c 2.62,3.054 7.19,3.378 10.22,0.761 v 0 c 3.02,-2.586 3.36,-7.168 0.76,-10.195 l -68.36,-79.656 c -2.64,-3.028 -7.19,-3.379 -10.24,-0.813 v 0"
         id="path68" /></clipPath><linearGradient
       x1="0"
       y1="0"
       x2="1"
       y2="0"
       gradientUnits="userSpaceOnUse"
       gradientTransform="matrix(-142.77336,-167.73072,75.856702,-65.666136,1657.3934,1111.5346)"
       spreadMethod="pad"
       id="linearGradient82"><stop
         style="stop-opacity:1;stop-color:#393637"
         offset="0"
         id="stop72" /><stop
         style="stop-opacity:1;stop-color:#a7a5a6"
         offset="0.164835"
         id="stop74" /><stop
         style="stop-opacity:1;stop-color:#f4f4f4"
         offset="0.225275"
         id="stop76" /><stop
         style="stop-opacity:1;stop-color:#918f90"
         offset="0.269231"
         id="stop78" /><stop
         style="stop-opacity:1;stop-color:#4f4c4d"
         offset="1"
         id="stop80" /></linearGradient><clipPath
       clipPathUnits="userSpaceOnUse"
       id="clipPath92"><path
         d="m 799.648,767.988 c 8.946,10.45 14.532,16.934 14.551,16.953 v 0 c 11.973,13.997 10.352,35.086 -3.594,47.11 v 0 l -170.14,146.054 c -3.887,3.313 -6.027,7.879 -6.406,12.668 v 0 c -0.352,4.77 1.093,9.617 4.394,13.477 v 0 l 39.262,45.74 c 3.613,4.25 8.203,6.8 12.305,7.58 v 0 c 4.16,0.77 7.421,-0.05 9.648,-1.96 v 0 c 8.535,-7.32 15.508,-13.31 15.508,-13.31 v 0 0 l 9.668,11.27 c 0,0 -6.973,5.98 -15.508,13.31 v 0 c -6.27,5.39 -14.57,6.79 -22.188,5.26 v 0 c -7.656,-1.53 -14.98,-5.84 -20.703,-12.48 v 0 l -39.254,-45.72 c -11.961,-14.018 -10.371,-35.077 3.606,-47.104 v 0 L 800.938,820.781 c 3.867,-3.34 5.996,-7.89 6.367,-12.676 v 0 c 0.371,-4.792 -1.055,-9.621 -4.375,-13.488 v 0 c -0.039,-0.015 -5.586,-6.504 -14.551,-16.949 v 0 C 779.375,767.18 766.973,752.727 753.32,736.809 v 0 C 726.016,705.027 662.07,630.547 642.016,607.18 v 0 l 11.285,-9.68 c 30.078,35.051 119.355,139.043 146.347,170.488 v 0"
         id="path90" /></clipPath><linearGradient
       x1="0"
       y1="0"
       x2="1"
       y2="0"
       gradientUnits="userSpaceOnUse"
       gradientTransform="matrix(-469.20953,-551.22908,460.84389,-398.93431,892.65686,1645.9945)"
       spreadMethod="pad"
       id="linearGradient104"><stop
         style="stop-opacity:1;stop-color:#393637"
         offset="0"
         id="stop94" /><stop
         style="stop-opacity:1;stop-color:#a7a5a6"
         offset="0.164835"
         id="stop96" /><stop
         style="stop-opacity:1;stop-color:#f4f4f4"
         offset="0.225275"
         id="stop98" /><stop
         style="stop-opacity:1;stop-color:#918f90"
         offset="0.269231"
         id="stop100" /><stop
         style="stop-opacity:1;stop-color:#4f4c4d"
         offset="1"
         id="stop102" /></linearGradient><clipPath
       clipPathUnits="userSpaceOnUse"
       id="clipPath114"><path
         d="m 652.676,605.879 142.461,165.984 14.551,16.957 c 9.824,11.493 8.496,28.868 -2.95,38.731 l -170.14,146.023 c -4.934,4.258 -7.942,10.18 -8.457,16.746 -0.469,6.555 1.582,12.89 5.808,17.8 l 39.254,45.72 c 4.277,5 9.961,8.46 15.684,9.54 7.363,1.41 12.011,-1.02 14.648,-3.26 l 10.996,-9.47 1.953,2.28 -11.015,9.45 c -4.434,3.78 -10.684,5.25 -17.129,3.92 -6.485,-1.29 -12.676,-5.01 -17.363,-10.51 l -39.282,-45.75 c -9.843,-11.47 -8.507,-28.833 2.969,-38.708 L 804.805,825.281 c 4.922,-4.226 7.929,-10.191 8.418,-16.726 0.507,-6.543 -1.563,-12.903 -5.782,-17.801 l -14.57,-16.953 -35.039,-40.84 -107.422,-125.129 2.266,-1.953 v 0"
         id="path112" /></clipPath><linearGradient
       x1="0"
       y1="0"
       x2="1"
       y2="0"
       gradientUnits="userSpaceOnUse"
       gradientTransform="matrix(-455.00812,-534.54507,444.31442,-384.62395,893.87506,1630.5464)"
       spreadMethod="pad"
       id="linearGradient126"><stop
         style="stop-opacity:1;stop-color:#7b7979"
         offset="0"
         id="stop116" /><stop
         style="stop-opacity:1;stop-color:#a7a5a6"
         offset="0.164835"
         id="stop118" /><stop
         style="stop-opacity:1;stop-color:#f4f4f4"
         offset="0.225275"
         id="stop120" /><stop
         style="stop-opacity:1;stop-color:#b8b7b7"
         offset="0.269231"
         id="stop122" /><stop
         style="stop-opacity:1;stop-color:#d7d7d7"
         offset="1"
         id="stop124" /></linearGradient><filter
       style="color-interpolation-filters:sRGB"
       id="filter634"><feColorMatrix
         values="0.21 0.72 0.072 0 0 0.21 0.72 0.072 0 0 0.21 0.72 0.072 0 0 0 0 0 1 0 "
         id="feColorMatrix632" /></filter><filter
       style="color-interpolation-filters:sRGB"
       id="filter638"><feColorMatrix
         values="0.21 0.72 0.072 0 0 0.21 0.72 0.072 0 0 0.21 0.72 0.072 0 0 0 0 0 1 0 "
         id="feColorMatrix636" /></filter><filter
       style="color-interpolation-filters:sRGB"
       id="filter642"><feColorMatrix
         values="0.21 0.72 0.072 0 0 0.21 0.72 0.072 0 0 0.21 0.72 0.072 0 0 0 0 0 1 0 "
         id="feColorMatrix640" /></filter><filter
       style="color-interpolation-filters:sRGB"
       id="filter646"><feColorMatrix
         values="0.21 0.72 0.072 0 0 0.21 0.72 0.072 0 0 0.21 0.72 0.072 0 0 0 0 0 1 0 "
         id="feColorMatrix644" /></filter><filter
       style="color-interpolation-filters:sRGB"
       id="filter650"><feColorMatrix
         values="0.21 0.72 0.072 0 0 0.21 0.72 0.072 0 0 0.21 0.72 0.072 0 0 0 0 0 1 0 "
         id="feColorMatrix648" /></filter><filter
       style="color-interpolation-filters:sRGB"
       id="filter654"><feColorMatrix
         values="0.21 0.72 0.072 0 0 0.21 0.72 0.072 0 0 0.21 0.72 0.072 0 0 0 0 0 1 0 "
         id="feColorMatrix652" /></filter><filter
       style="color-interpolation-filters:sRGB"
       id="filter658"><feColorMatrix
         values="0.21 0.72 0.072 0 0 0.21 0.72 0.072 0 0 0.21 0.72 0.072 0 0 0 0 0 1 0 "
         id="feColorMatrix656" /></filter><filter
       style="color-interpolation-filters:sRGB"
       id="filter662"><feColorMatrix
         values="0.21 0.72 0.072 0 0 0.21 0.72 0.072 0 0 0.21 0.72 0.072 0 0 0 0 0 1 0 "
         id="feColorMatrix660" /></filter><filter
       style="color-interpolation-filters:sRGB"
       id="filter666"><feColorMatrix
         values="0.21 0.72 0.072 0 0 0.21 0.72 0.072 0 0 0.21 0.72 0.072 0 0 0 0 0 1 0 "
         id="feColorMatrix664" /></filter><filter
       style="color-interpolation-filters:sRGB"
       id="filter670"><feColorMatrix
         values="0.21 0.72 0.072 0 0 0.21 0.72 0.072 0 0 0.21 0.72 0.072 0 0 0 0 0 1 0 "
         id="feColorMatrix668" /></filter><filter
       style="color-interpolation-filters:sRGB"
       id="filter674"><feColorMatrix
         values="0.21 0.72 0.072 0 0 0.21 0.72 0.072 0 0 0.21 0.72 0.072 0 0 0 0 0 1 0 "
         id="feColorMatrix672" /></filter><filter
       style="color-interpolation-filters:sRGB"
       id="filter678"><feColorMatrix
         values="0.21 0.72 0.072 0 0 0.21 0.72 0.072 0 0 0.21 0.72 0.072 0 0 0 0 0 1 0 "
         id="feColorMatrix676" /></filter><filter
       style="color-interpolation-filters:sRGB"
       id="filter682"><feColorMatrix
         values="0.21 0.72 0.072 0 0 0.21 0.72 0.072 0 0 0.21 0.72 0.072 0 0 0 0 0 1 0 "
         id="feColorMatrix680" /></filter><filter
       style="color-interpolation-filters:sRGB"
       id="filter686"><feColorMatrix
         values="0.21 0.72 0.072 0 0 0.21 0.72 0.072 0 0 0.21 0.72 0.072 0 0 0 0 0 1 0 "
         id="feColorMatrix684" /></filter><filter
       style="color-interpolation-filters:sRGB"
       id="filter690"><feColorMatrix
         values="0.21 0.72 0.072 0 0 0.21 0.72 0.072 0 0 0.21 0.72 0.072 0 0 0 0 0 1 0 "
         id="feColorMatrix688" /></filter><filter
       style="color-interpolation-filters:sRGB"
       id="filter694"><feColorMatrix
         values="0.21 0.72 0.072 0 0 0.21 0.72 0.072 0 0 0.21 0.72 0.072 0 0 0 0 0 1 0 "
         id="feColorMatrix692" /></filter><filter
       style="color-interpolation-filters:sRGB"
       id="filter698"><feColorMatrix
         values="0.21 0.72 0.072 0 0 0.21 0.72 0.072 0 0 0.21 0.72 0.072 0 0 0 0 0 1 0 "
         id="feColorMatrix696" /></filter><filter
       style="color-interpolation-filters:sRGB"
       id="filter702"><feColorMatrix
         values="0.21 0.72 0.072 0 0 0.21 0.72 0.072 0 0 0.21 0.72 0.072 0 0 0 0 0 1 0 "
         id="feColorMatrix700" /></filter><filter
       style="color-interpolation-filters:sRGB"
       id="filter706"><feColorMatrix
         values="0.21 0.72 0.072 0 0 0.21 0.72 0.072 0 0 0.21 0.72 0.072 0 0 0 0 0 1 0 "
         id="feColorMatrix704" /></filter><filter
       style="color-interpolation-filters:sRGB"
       id="filter710"><feColorMatrix
         values="0.21 0.72 0.072 0 0 0.21 0.72 0.072 0 0 0.21 0.72 0.072 0 0 0 0 0 1 0 "
         id="feColorMatrix708" /></filter><filter
       style="color-interpolation-filters:sRGB"
       id="filter714"><feColorMatrix
         values="0.21 0.72 0.072 0 0 0.21 0.72 0.072 0 0 0.21 0.72 0.072 0 0 0 0 0 1 0 "
         id="feColorMatrix712" /></filter><filter
       style="color-interpolation-filters:sRGB"
       id="filter718"><feColorMatrix
         values="0.21 0.72 0.072 0 0 0.21 0.72 0.072 0 0 0.21 0.72 0.072 0 0 0 0 0 1 0 "
         id="feColorMatrix716" /></filter><filter
       style="color-interpolation-filters:sRGB"
       id="filter722"><feColorMatrix
         values="0.21 0.72 0.072 0 0 0.21 0.72 0.072 0 0 0.21 0.72 0.072 0 0 0 0 0 1 0 "
         id="feColorMatrix720" /></filter><filter
       style="color-interpolation-filters:sRGB"
       id="filter726"><feColorMatrix
         values="0.21 0.72 0.072 0 0 0.21 0.72 0.072 0 0 0.21 0.72 0.072 0 0 0 0 0 1 0 "
         id="feColorMatrix724" /></filter><filter
       style="color-interpolation-filters:sRGB"
       id="filter730"><feColorMatrix
         values="0.21 0.72 0.072 0 0 0.21 0.72 0.072 0 0 0.21 0.72 0.072 0 0 0 0 0 1 0 "
         id="feColorMatrix728" /></filter><filter
       style="color-interpolation-filters:sRGB"
       id="filter734"><feColorMatrix
         values="0.21 0.72 0.072 0 0 0.21 0.72 0.072 0 0 0.21 0.72 0.072 0 0 0 0 0 1 0 "
         id="feColorMatrix732" /></filter><filter
       style="color-interpolation-filters:sRGB"
       id="filter738"><feColorMatrix
         values="0.21 0.72 0.072 0 0 0.21 0.72 0.072 0 0 0.21 0.72 0.072 0 0 0 0 0 1 0 "
         id="feColorMatrix736" /></filter><filter
       style="color-interpolation-filters:sRGB"
       id="filter742"><feColorMatrix
         values="0.21 0.72 0.072 0 0 0.21 0.72 0.072 0 0 0.21 0.72 0.072 0 0 0 0 0 1 0 "
         id="feColorMatrix740" /></filter><filter
       style="color-interpolation-filters:sRGB"
       id="filter746"><feColorMatrix
         values="0.21 0.72 0.072 0 0 0.21 0.72 0.072 0 0 0.21 0.72 0.072 0 0 0 0 0 1 0 "
         id="feColorMatrix744" /></filter><filter
       style="color-interpolation-filters:sRGB"
       id="filter750"><feColorMatrix
         values="0.21 0.72 0.072 0 0 0.21 0.72 0.072 0 0 0.21 0.72 0.072 0 0 0 0 0 1 0 "
         id="feColorMatrix748" /></filter><filter
       style="color-interpolation-filters:sRGB"
       id="filter754"><feColorMatrix
         values="0.21 0.72 0.072 0 0 0.21 0.72 0.072 0 0 0.21 0.72 0.072 0 0 0 0 0 1 0 "
         id="feColorMatrix752" /></filter><filter
       style="color-interpolation-filters:sRGB"
       id="filter758"><feColorMatrix
         values="0.21 0.72 0.072 0 0 0.21 0.72 0.072 0 0 0.21 0.72 0.072 0 0 0 0 0 1 0 "
         id="feColorMatrix756" /></filter><filter
       style="color-interpolation-filters:sRGB"
       id="filter762"><feColorMatrix
         values="0.21 0.72 0.072 0 0 0.21 0.72 0.072 0 0 0.21 0.72 0.072 0 0 0 0 0 1 0 "
         id="feColorMatrix760" /></filter><filter
       style="color-interpolation-filters:sRGB"
       id="filter766"><feColorMatrix
         values="0.21 0.72 0.072 0 0 0.21 0.72 0.072 0 0 0.21 0.72 0.072 0 0 0 0 0 1 0 "
         id="feColorMatrix764" /></filter><filter
       style="color-interpolation-filters:sRGB"
       id="filter770"><feColorMatrix
         values="0.21 0.72 0.072 0 0 0.21 0.72 0.072 0 0 0.21 0.72 0.072 0 0 0 0 0 1 0 "
         id="feColorMatrix768" /></filter><filter
       style="color-interpolation-filters:sRGB"
       id="filter774"><feColorMatrix
         values="0.21 0.72 0.072 0 0 0.21 0.72 0.072 0 0 0.21 0.72 0.072 0 0 0 0 0 1 0 "
         id="feColorMatrix772" /></filter><filter
       style="color-interpolation-filters:sRGB"
       id="filter778"><feColorMatrix
         values="0.21 0.72 0.072 0 0 0.21 0.72 0.072 0 0 0.21 0.72 0.072 0 0 0 0 0 1 0 "
         id="feColorMatrix776" /></filter><filter
       style="color-interpolation-filters:sRGB"
       id="filter782"><feColorMatrix
         values="0.21 0.72 0.072 0 0 0.21 0.72 0.072 0 0 0.21 0.72 0.072 0 0 0 0 0 1 0 "
         id="feColorMatrix780" /></filter><filter
       style="color-interpolation-filters:sRGB"
       id="filter786"><feColorMatrix
         values="0.21 0.72 0.072 0 0 0.21 0.72 0.072 0 0 0.21 0.72 0.072 0 0 0 0 0 1 0 "
         id="feColorMatrix784" /></filter><filter
       style="color-interpolation-filters:sRGB"
       id="filter790"><feColorMatrix
         values="0.21 0.72 0.072 0 0 0.21 0.72 0.072 0 0 0.21 0.72 0.072 0 0 0 0 0 1 0 "
         id="feColorMatrix788" /></filter><filter
       style="color-interpolation-filters:sRGB"
       id="filter794"><feColorMatrix
         values="0.21 0.72 0.072 0 0 0.21 0.72 0.072 0 0 0.21 0.72 0.072 0 0 0 0 0 1 0 "
         id="feColorMatrix792" /></filter><filter
       style="color-interpolation-filters:sRGB"
       id="filter798"><feColorMatrix
         values="0.21 0.72 0.072 0 0 0.21 0.72 0.072 0 0 0.21 0.72 0.072 0 0 0 0 0 1 0 "
         id="feColorMatrix796" /></filter><filter
       style="color-interpolation-filters:sRGB"
       id="filter802"><feColorMatrix
         values="0.21 0.72 0.072 0 0 0.21 0.72 0.072 0 0 0.21 0.72 0.072 0 0 0 0 0 1 0 "
         id="feColorMatrix800" /></filter><filter
       style="color-interpolation-filters:sRGB"
       id="filter806"><feColorMatrix
         values="0.21 0.72 0.072 0 0 0.21 0.72 0.072 0 0 0.21 0.72 0.072 0 0 0 0 0 1 0 "
         id="feColorMatrix804" /></filter><filter
       style="color-interpolation-filters:sRGB"
       id="filter810"><feColorMatrix
         values="0.21 0.72 0.072 0 0 0.21 0.72 0.072 0 0 0.21 0.72 0.072 0 0 0 0 0 1 0 "
         id="feColorMatrix808" /></filter><filter
       style="color-interpolation-filters:sRGB"
       id="filter814"><feColorMatrix
         values="0.21 0.72 0.072 0 0 0.21 0.72 0.072 0 0 0.21 0.72 0.072 0 0 0 0 0 1 0 "
         id="feColorMatrix812" /></filter><filter
       style="color-interpolation-filters:sRGB"
       id="filter818"><feColorMatrix
         values="0.21 0.72 0.072 0 0 0.21 0.72 0.072 0 0 0.21 0.72 0.072 0 0 0 0 0 1 0 "
         id="feColorMatrix816" /></filter><filter
       style="color-interpolation-filters:sRGB"
       id="filter822"><feColorMatrix
         values="0.21 0.72 0.072 0 0 0.21 0.72 0.072 0 0 0.21 0.72 0.072 0 0 0 0 0 1 0 "
         id="feColorMatrix820" /></filter><filter
       style="color-interpolation-filters:sRGB"
       id="filter826"><feColorMatrix
         values="0.21 0.72 0.072 0 0 0.21 0.72 0.072 0 0 0.21 0.72 0.072 0 0 0 0 0 1 0 "
         id="feColorMatrix824" /></filter><filter
       style="color-interpolation-filters:sRGB"
       id="filter830"><feColorMatrix
         values="0.21 0.72 0.072 0 0 0.21 0.72 0.072 0 0 0.21 0.72 0.072 0 0 0 0 0 1 0 "
         id="feColorMatrix828" /></filter><filter
       style="color-interpolation-filters:sRGB"
       id="filter834"><feColorMatrix
         values="0.21 0.72 0.072 0 0 0.21 0.72 0.072 0 0 0.21 0.72 0.072 0 0 0 0 0 1 0 "
         id="feColorMatrix832" /></filter><filter
       style="color-interpolation-filters:sRGB"
       id="filter838"><feColorMatrix
         values="0.21 0.72 0.072 0 0 0.21 0.72 0.072 0 0 0.21 0.72 0.072 0 0 0 0 0 1 0 "
         id="feColorMatrix836" /></filter><filter
       style="color-interpolation-filters:sRGB"
       id="filter842"><feColorMatrix
         values="0.21 0.72 0.072 0 0 0.21 0.72 0.072 0 0 0.21 0.72 0.072 0 0 0 0 0 1 0 "
         id="feColorMatrix840" /></filter><filter
       style="color-interpolation-filters:sRGB"
       id="filter846"><feColorMatrix
         values="0.21 0.72 0.072 0 0 0.21 0.72 0.072 0 0 0.21 0.72 0.072 0 0 0 0 0 1 0 "
         id="feColorMatrix844" /></filter><filter
       style="color-interpolation-filters:sRGB"
       id="filter850"><feColorMatrix
         values="0.21 0.72 0.072 0 0 0.21 0.72 0.072 0 0 0.21 0.72 0.072 0 0 0 0 0 1 0 "
         id="feColorMatrix848" /></filter><filter
       style="color-interpolation-filters:sRGB"
       id="filter854"><feColorMatrix
         values="0.21 0.72 0.072 0 0 0.21 0.72 0.072 0 0 0.21 0.72 0.072 0 0 0 0 0 1 0 "
         id="feColorMatrix852" /></filter><filter
       style="color-interpolation-filters:sRGB"
       id="filter858"><feColorMatrix
         values="0.21 0.72 0.072 0 0 0.21 0.72 0.072 0 0 0.21 0.72 0.072 0 0 0 0 0 1 0 "
         id="feColorMatrix856" /></filter><filter
       style="color-interpolation-filters:sRGB"
       id="filter862"><feColorMatrix
         values="0.21 0.72 0.072 0 0 0.21 0.72 0.072 0 0 0.21 0.72 0.072 0 0 0 0 0 1 0 "
         id="feColorMatrix860" /></filter><filter
       style="color-interpolation-filters:sRGB"
       id="filter866"><feColorMatrix
         values="0.21 0.72 0.072 0 0 0.21 0.72 0.072 0 0 0.21 0.72 0.072 0 0 0 0 0 1 0 "
         id="feColorMatrix864" /></filter><filter
       style="color-interpolation-filters:sRGB"
       id="filter870"><feColorMatrix
         values="0.21 0.72 0.072 0 0 0.21 0.72 0.072 0 0 0.21 0.72 0.072 0 0 0 0 0 1 0 "
         id="feColorMatrix868" /></filter><filter
       style="color-interpolation-filters:sRGB"
       id="filter874"><feColorMatrix
         values="0.21 0.72 0.072 0 0 0.21 0.72 0.072 0 0 0.21 0.72 0.072 0 0 0 0 0 1 0 "
         id="feColorMatrix872" /></filter><filter
       style="color-interpolation-filters:sRGB"
       id="filter878"><feColorMatrix
         values="0.21 0.72 0.072 0 0 0.21 0.72 0.072 0 0 0.21 0.72 0.072 0 0 0 0 0 1 0 "
         id="feColorMatrix876" /></filter><filter
       style="color-interpolation-filters:sRGB"
       id="filter9134"><feColorMatrix
         type="hueRotate"
         values="224"
         result="color1"
         id="feColorMatrix9130" /><feColorMatrix
         type="saturate"
         values="0.919162"
         result="fbSourceGraphic"
         id="feColorMatrix9132" /><feColorMatrix
         result="fbSourceGraphicAlpha"
         in="fbSourceGraphic"
         values="0 0 0 -1 0 0 0 0 -1 0 0 0 0 -1 0 0 0 0 1 0"
         id="feColorMatrix9136" /><feColorMatrix
         id="feColorMatrix9138"
         type="hueRotate"
         values="306"
         result="color1"
         in="fbSourceGraphic" /><feColorMatrix
         id="feColorMatrix9140"
         type="saturate"
         values="0.919162"
         result="color2" /></filter><linearGradient
       xlink:href="#linearGradient1161"
       id="linearGradient1163"
       x1="2.0905671"
       y1="37.108482"
       x2="93.74826"
       y2="37.108482"
       gradientUnits="userSpaceOnUse" /></defs><path
     style="fill:#999999;fill-opacity:1;stroke:#808080;stroke-width:0.468;stroke-linecap:butt;stroke-linejoin:miter;stroke-miterlimit:4;stroke-dasharray:none;stroke-opacity:1"
     d="m 35.53029,39.326381 c 0,0 -12.047572,-1.171966 -12.738106,12.327973 0,0 0.328279,13.115329 3.448303,18.857389 0,0 1.433732,4.60026 1.656962,6.80841 0.155843,1.54157 0.343822,5.81553 0.387051,6.85093 -1.408217,4.87311 4.267909,3.95066 2.77275,0.19247 0,0 -0.869949,-3.46263 -0.521242,-5.28135 0.657422,-3.42885 2.018628,-4.14045 3.194417,-2.79605 0,0 2.424805,5.38888 2.194465,10.81588 0,0 0.140381,1.18121 -0.204886,4.56483 0,0 -1.691808,4.48847 0.586954,5.10995 0,0 0.828641,0.55243 1.898968,-1.00128 0,0 0.60245,-1.39962 -0.157324,-3.15574 0,0 -0.208053,-5.87704 1.228176,-7.11427 0,0 2.013878,-1.74059 2.459806,2.91867 0,0 -0.265145,6.34976 0.48106,7.95345 0,0 1.357609,2.54583 0.921788,5.091847 0,0 -1.10493,4.70703 0.921795,5.20051 0,0 3.914618,1.01845 2.034651,-4.58299 0,0 -1.384969,-7.697207 3.638446,-2.130307 0,0 0.918809,3.163017 3.549123,2.927767 0,0 2.804509,-2.05071 2.056282,11.99875 0,0 -1.880305,4.14959 1.061719,3.85161 0,0 2.690916,0.12819 1.358704,-3.68267 0,0 -1.638926,-7.92726 2.146706,-8.89741 0,0 2.105804,-0.74804 2.035301,5.60486 0,0 0.06679,3.24776 5.324929,-0.29743 0,0 2.673448,-2.22058 2.536208,7.16993 0,0 -1.863942,6.24443 0.559927,5.95233 0,0 2.322982,1.15616 1.301031,-5.7733 0,0 -1.668381,-15.23207 3.051901,-16.30255 0,0 2.488356,-0.0835 2.819989,13.11619 0,0 -1.268396,7.4317 1.22451,7.14112 0,0 2.599128,1.16222 1.353384,-5.01238 0,0 -1.230208,-7.80262 4.60497,-8.08117 0,0 1.938776,0.2335 2.097281,-1.42358 0,0 -0.130656,-4.05658 3.103851,-1.22606 0,0 3.583917,1.73507 2.123969,10.02593 0,0 -0.937646,4.95245 1.070486,4.72029 0,0 2.813431,-0.7325 2.087762,-3.85659 0,0 -2.154231,-7.26515 -0.704093,-8.8219 0,0 2.107112,-3.16547 3.924085,-0.98438 0,0 2.634801,2.68255 3.938491,-1.64022 0,0 0.70321,-6.857017 2.76673,-6.466337 0,0 0.9741,-0.32395 2.39354,1.088637 1.41943,1.41259 2.91016,-0.41955 2.91016,-0.41955 0,0 2.04226,-1.785487 1.72442,3.24964 0,0 -1.98912,5.65458 0.70104,5.81729 0,0 3.78716,0.53216 2.55091,-4.50258 0,0 -2.88707,-5.347287 2.09534,-4.20178 0,0 2.62303,1.64624 6.04297,-3.113517 0,0 1.37958,-1.48924 3.54817,-1.16531 0,0 4.13347,-1.08338 2.85446,6.831577 0,0 -0.96382,4.57198 1.34588,4.76086 0,0 3.44197,0.52458 1.79984,-4.89896 0,0 -1.56745,-11.966287 3.92669,-7.390557 0,0 2.02674,2.06482 3.99047,-0.86205 0,0 0.94867,-1.55704 2.64438,0.1774 0,0 1.66433,2.05121 1.24782,6.559747 0,0 -1.31183,5.24589 1.50476,4.86821 0,0 2.81069,-0.10918 2.20691,-2.63771 0,0 -1.0769,-4.178227 -0.58236,-6.233957 0,0 2.13875,-12.28163 4.35517,-7.84698 0,0 0.65489,1.50427 2.08665,0.80312 0,0 1.50284,-0.6019 0.48894,-3.35921 0,0 -0.76203,-1.99476 -0.26745,-4.49915 0,0 0.42591,-3.82457 1.98481,-3.6438 0,0 2.59531,-0.30928 1.7558,2.33405 0,0 -0.8017,2.03366 1.05708,1.90356 0,0 1.77911,0.16119 1.35343,-1.58198 0,0 -0.41549,-2.20693 1.34297,-2.21713 0,0 2.07573,0.65479 1.73808,-5.98335 0,0 -1.01853,-5.51345 -0.203,-8.05113 0,0 4.27236,-6.00464 1.26052,-10.048942 -3.64044,-5.233273 -1.21976,-5.153643 -1.27578,-10.151552 0,0 0.40788,-9.011727 -9.33995,-6.094248 0,0 -4.40055,2.832356 -9.90207,1.11389 0,0 -4.15146,-3.153056 -20.38443,0.364794 -3.47519,-1.090977 -4.16532,-0.703167 -11.06509,-1.865273 -3.44993,-0.176798 -12.95248,0.511187 -13.376079,0.511815 L 84.094308,39.142523 c 0,0 -5.15625,0.515625 -13.28125,-0.15625 -8.374574,-1.481526 -9.426092,-0.108501 -15.628938,1.32161 l -7.277312,-0.50911 c 0,0 -5.6875,-0.23438 -8.46875,0.296875 0,0 -1.018661,-0.507284 -3.907768,-0.769267 z"
     id="path1109" /><path
     id="path1352"
     d="m 23.360755,13.413395 c 0,0 0.21916,0.13854 0.78798,-0.225196 0,0 0.88628,-0.5276 2.37051,-2.122496 0,0 1.85081,-2.067004 2.04663,-2.288317 0,0 1.51247,-1.767199 1.72751,-1.927659 0,0 2.79941,-2.861012 4.06221,-3.546824 0,0 12.09505,9.337689 14.11535,13.687973 0,0 0.71192,1.601254 -1.38128,3.593259 0,0 -0.26152,0.433359 -1.35945,1.665883 -0.37224,-0.02235 -3.88482,2.640049 -8.00486,6.943888 0,0 -0.3743,0.378359 -0.35336,0.69788 0,0 0.17226,0.511864 0.008,0.545188 0,0 -8.09123,-1.522746 -14.52226,-16.705799 0,0 -0.52667,-0.68987 0.50302,-0.31778 z"
     style="fill:#000000;stroke:#000000;stroke-width:0.0234;stroke-linecap:butt;stroke-linejoin:miter;stroke-miterlimit:4;stroke-dasharray:none;stroke-opacity:1" /><path
     style="fill:#4d4d4d;stroke:none;stroke-width:0.0619125px;stroke-linecap:butt;stroke-linejoin:miter;stroke-opacity:1"
     d="m 2.02226,47.890788 c 0,0 -0.5671,-0.974913 1.05286,-3.431164 0,0 2.47666,-4.713261 4.24983,-6.552527 0,0 0.87181,-1.311758 5.35427,-4.71495 0,0 2.5794,-1.908582 5.24484,-4.019461 0,0 3.138015,-2.043978 2.181355,-7.792038 5.44612,4.563525 4.70685,3.443159 9.07945,10.723477 0,0 -3.55303,-1.745672 -7.39143,1.750395 -2.13183,1.807544 -5.446605,6.794832 -9.248125,9.742858 -2.31489,1.927041 -5.34559,3.025195 -7.33613,3.892182 -2.222,0.951085 -2.8326,1.106178 -3.18692,0.401228 z"
     id="path3682" /><path
     id="path2107"
     d="m 4.06604,46.189884 c 0,0 -0.54461,-0.431954 -0.0657,-1.061102 0,0 0.44133,-0.554029 1.08924,-0.112686 0,0 0.53522,0.366221 0.12207,1.079881 0,0 -0.49767,0.647937 -1.14558,0.09391 z"
     style="fill:#000000;stroke:none;stroke-width:0.0619125px;stroke-linecap:butt;stroke-linejoin:miter;stroke-opacity:1" /><path
     style="fill:#ffffff;stroke:none;stroke-width:0.0619125px;stroke-linecap:butt;stroke-linejoin:miter;stroke-opacity:1"
     d="m 4.2393,46.148437 c 0,0 -0.50709,-0.402192 -0.0612,-0.987992 0,0 0.41092,-0.515856 1.01419,-0.104922 0,0 0.49835,0.340988 0.11366,1.005477 0,0 -0.46338,0.603294 -1.06665,0.08744 z"
     id="path3686" /><path
     id="path1344"
     d="m 37.371995,29.891785 c 0.092,0.706946 -0.43832,0.121134 -0.43832,0.121134 -6.90325,-7.4295 -13.81376,-16.398588 -13.81376,-16.398588 -0.15671,-0.290219 0.24085,-0.200937 0.24085,-0.200937 0,0 -0.34905,-0.458031 -1.1299,-0.08513 0,0 13.23361,17.83707 15.13613,17.60874 0,0 0.44964,-0.58705 0.005,-1.045219 z"
     style="fill:#b3b3b3;stroke:none;stroke-width:0.00234;stroke-linecap:butt;stroke-linejoin:miter;stroke-miterlimit:4;stroke-dasharray:none;stroke-opacity:1" /><path
     style="display:inline;opacity:0.477419;fill:#ffffff;stroke:none;stroke-width:0.0619125px;stroke-linecap:butt;stroke-linejoin:miter;stroke-opacity:1"
     d="m 3.73601,44.583547 c 0,0 1.92606,-5.442402 8.44174,-9.563034 0,0 8.642435,-6.306699 9.279595,-8.784314 0,0 0.72004,-2.183833 -0.1743,-2.982569 0,0 0.29366,1.962516 -0.55942,3.413602 0,0 -1.18021,2.646237 -8.891945,7.807862 0,0 -6.22308,4.091805 -8.09568,10.108453 z"
     id="path2090" /><path
     id="path2109"
     d="m 28.292331,30.955314 c -2.411074,-1.237675 -4.535278,0.311771 -4.535278,0.311771 -3.429201,2.270377 -5.704193,5.624857 -5.704193,5.624857 -5.68687,7.335015 -13.48601,10.373609 -13.48601,10.373609 0,0 7.38965,-2.581663 10.66515,-6.314699 0,0 6.032505,-7.137429 6.584455,-7.573676 0,0 2.692619,-2.951748 6.505883,-2.055783 z"
     style="fill:#333333;stroke:none;stroke-width:0.0619125px;stroke-linecap:butt;stroke-linejoin:miter;stroke-opacity:1" /><path
     style="display:inline;fill:#e6e6e6;stroke:none;stroke-width:0.0619125px;stroke-linecap:butt;stroke-linejoin:miter;stroke-opacity:1"
     d="m 33.220645,34.630028 c 1.6368,-0.951904 4.14635,-3.693025 4.14635,-3.693025 0.47596,-0.684043 0.005,-1.045218 0.005,-1.045218 0.35023,1.09447 -0.57624,0.253457 -0.57624,0.253457 -4.1481,-3.9624 -13.93802,-16.414067 -13.93802,-16.414067 -0.48737,-0.733608 0.50304,-0.317782 0.50304,-0.317782 -0.40243,-0.51852 -1.12991,-0.08513 -1.12991,-0.08513 -1.64068,1.129903 -3.970135,3.730227 -3.970135,3.730227 -0.60365,0.696516 -0.28814,1.127954 -0.28814,1.127954 5.384785,10.112889 14.063915,16.526475 14.063915,16.526475 0,0 0.46879,0.403344 1.18384,-0.08289 z"
     id="path1310" /><path
     id="path2115"
     d="m 30.513775,6.898467 c 0,0 -2.0702,3.367872 -4.59834,5.707049 0,0 3.14763,-1.668025 5.46771,-4.953497 0,0 -2.782,4.325781 -4.5879,5.729186 0,0 3.46013,-2.875995 6.73257,-6.63213 0,0 -0.5109,1.739825 -6.65371,7.958609 1.22756,-0.804566 3.88817,-1.929576 7.57038,-7.357229 0,0 -0.99429,3.710184 -6.55642,8.486339 0,0 3.14686,-1.635199 6.44329,-5.007613 0,0 -1.32456,2.366954 -4.934,5.546036 0,0 4.54419,-2.851266 6.57618,-5.805411 0,0 0.039,1.912251 -4.63199,5.548528 0,0 1.71899,-0.544462 4.7215,-3.23574 0,0 -0.21943,1.062245 -6.24652,6.451547 0,0 6.05538,-4.143603 7.45154,-5.771013 0,0 0.7115,1.792699 -5.93111,6.189458 0,0 6.4155,-3.977512 7.4532,-4.781611 0,0 -0.0804,0.49573 -6.81627,6.780618 0,0 5.48772,-3.673209 8.32706,-5.841579 0,0 -4.78703,4.463514 -7.73424,6.717831 0,0 7.32703,-4.360971 9.60688,-6.143683 0,0 -1.97845,2.787479 -9.0392,7.260426 0,0 7.18534,-4.152802 9.58793,-5.819638 0,0 -1.58987,2.350198 -7.69286,7.213443 0,0 2.41806,-1.50238 9.02663,-6.070406 0,0 -1.80623,2.311049 -8.49038,7.577156 0,0 0.0726,-5.26e-4 0.30542,-0.09608 0.23283,-0.09555 8.04444,-5.807664 8.68537,-6.187764 0.64094,-0.3801 -7.62865,7.025317 -6.41975,6.14999 0.97315,-0.704623 4.79912,-3.344284 6.78207,-4.860477 L 48.320965,17.99572 34.095035,3.810784 Z"
     style="fill:#333333;fill-opacity:1;stroke:#1a1a1a;stroke-width:0.1872;stroke-linecap:butt;stroke-linejoin:miter;stroke-miterlimit:4;stroke-dasharray:none;stroke-opacity:1" /><path
     id="path1538"
     d="m 46.235805,21.954503 c 0.44207,-0.590059 1.45278,-1.6371 2.7058,-3.082798 0.2542,-0.293283 1.01585,-1.623905 -0.43042,-2.973691 -0.29906,-0.279102 -1.33207,-1.577726 -1.61072,-2.069794 -0.8815,-1.304747 -1.53716,-1.942474 -2.6585,-3.250601 -2.10084,-2.961004 -7.5267,-6.914392 -8.26259,-7.515349 -0.29841,-0.243694 -1.55942,-0.669631 -2.82921,0.301078 -0.79632,0.608765 -1.96418,1.989246 -2.19808,2.222634 -0.23391,0.233388 -0.61053,0.48295 -0.78979,0.64497 -0.17927,0.162021 -0.32454,0.280481 -0.42242,0.339629 0,0 -1.06021,0.683452 -0.38457,1.299474 0,0 0.65241,0.868772 1.35576,-0.276191 0,0 1.37808,-3.600983 3.95529,-1.921879 1.06363,0.974427 0.9623,1.069307 0.49269,2.714075 0,0 -1.67523,3.272985 -2.85294,3.615627 0,0 -2.31772,1.301632 0.0397,1.91154 0,0 0.78164,0.454873 1.59007,-1.81782 0,0 1.96802,-3.210796 3.80454,-1.72792 0.98169,1.143462 3.70373,3.473267 1.70054,4.821921 0,0 -2.5559,1.200192 -1.72232,2.502548 0,0 1.22156,1.007978 2.19936,-1.023739 0,0 0.80606,-2.311213 1.80196,-0.88345 0,0 0.52666,1.242345 1.94725,1.078177 0,0 1.29443,-0.330443 2.08799,0.317039 0,0 1.71136,1.113375 0.65897,2.241005 0,0 -1.05866,1.065109 -1.81573,1.219319 0,0 -2.69162,1.03471 -0.71303,2.389478 0,0 0.61806,1.107428 1.78999,-0.410992"
     style="fill:#808080;fill-opacity:1;stroke:none;stroke-width:0.0234;stroke-linecap:butt;stroke-linejoin:miter;stroke-miterlimit:4;stroke-dasharray:none;stroke-opacity:1" /><path
     id="path2231"
     d="m 32.369315,4.792788 c 0,0 2.06304,-2.181829 3.25145,-1.349324 0,0 6.83082,5.613506 7.6331,6.901944 0,0 1.92306,2.058742 3.2263,4.409711 0,0 0.2915,0.603831 1.54001,1.515134 0,0 1.33178,1.17857 -0.10513,2.721861 0,0 -2.11766,2.57855 -2.66105,3.354236 0,0 -0.6146,0.951288 -1.12286,0.165445 0,0 -0.2986,-0.477415 0.25291,-0.656269 0,0 0.40762,-0.111016 0.76571,-0.447601 0,0 3.14847,-2.696423 2.1268,-4.255684 0,0 -0.74791,-1.333953 -2.73527,-1.554982 0,0 -2.03467,-0.386467 -2.08937,-1.810918 0,0 -0.91039,-4.253307 -3.78879,-4.644866 0,0 -3.73841,-0.36614 -5.63982,3.814194 0,0 -0.10253,0.813744 -0.7741,0.395706 0,0 -0.88215,-0.25877 0.0956,-0.882112 0,0 0.70121,-0.498353 1.36824,-1.413505 0,0 2.48067,-3.128499 2.38784,-4.32393 0,0 -0.0673,-1.829802 -1.81364,-2.056217 0,0 -1.00974,-0.244993 -2.50523,0.990414 0,0 -1.29645,1.50548 -1.43937,2.005771 0,0 -0.28186,0.401649 -0.70202,0.107314 0,0 -0.20259,-0.234575 0.15841,-0.69699 0,0 0.82249,-1.007782 2.57026,-2.289332 z"
     style="fill:#999999;stroke:none;stroke-width:0.0619125px;stroke-linecap:butt;stroke-linejoin:miter;stroke-opacity:1" /><path
     id="path2233"
     d="m 40.624345,14.271988 c 0,0 0.10677,-0.454846 0.43859,-0.607536 0.22223,-0.10226 0.593335,-0.03545 0.752725,0.306644 0,0 0.321941,0.569299 -0.468765,0.750863 0,0 -0.65111,0.01853 -1.43725,1.174647 0,0 -0.18057,0.609017 -0.83655,1.40111 0,0 -0.1766,0.26276 -0.75806,0.168363 0,0 -0.47691,-0.114501 -0.15423,-0.69835 0.33611,-0.477448 0.2234,-0.558415 0.86866,-0.922104 0.56829,-0.32031 1.03835,-0.803898 1.59488,-1.573637 z"
     style="fill:#999999;stroke:none;stroke-width:0.0619125px;stroke-linecap:butt;stroke-linejoin:miter;stroke-opacity:1" /><path
     id="path2235"
     d="m 42.293335,15.084784 c 0,0 0.96253,0.865844 1.84907,0.875356 0,0 0.85245,0.06346 0.31151,0.258983 0,0 -0.87555,0.270522 -1.72501,-0.204026 0,0 -0.70082,-0.285444 -0.71542,-0.782843 0,0 -0.0304,-0.461161 0.27985,-0.14747 z"
     style="fill:#999999;stroke:none;stroke-width:0.0619125px;stroke-linecap:butt;stroke-linejoin:miter;stroke-opacity:1" /><path
     id="path2237"
     d="m 41.377805,12.029499 c 0.26304,0.645949 0.0718,0.778131 -0.33806,0.840653 -0.25542,0.04538 -0.42458,0.151798 -0.64824,-0.208878 0,0 -0.69624,-1.785721 -2.53139,-2.878907 0,0 2.08094,-0.205613 3.51769,2.247132 z"
     style="fill:#999999;stroke:none;stroke-width:0.0619125px;stroke-linecap:butt;stroke-linejoin:miter;stroke-opacity:1" /><path
     style="fill:#808080;stroke:none;stroke-width:0.0619125px;stroke-linecap:butt;stroke-linejoin:miter;stroke-opacity:1"
     d="m 48.438307,27.159043 c 0,0 -2.143831,7.578995 -0.262673,7.464276 0,0 0.368848,0.03267 0.415899,-1.072579 0,0 0.437787,-7.551834 -0.153226,-6.391697 z"
     id="path1173" /><path
     id="path1174"
     d="m 48.471277,28.118879 c 0,0 -1.559116,5.400442 -0.436649,6.157959 0,0 0.361089,0.191879 0.436649,-6.157959 z"
     style="fill:#999999;stroke:none;stroke-width:0.0619125px;stroke-linecap:butt;stroke-linejoin:miter;stroke-opacity:1" /><path
     id="path1173-6"
     d="m 49.622371,20.384514 c 0,0 -1.822005,4.305439 -0.559553,4.576048 0,0 0.629728,0.145773 0.975796,-0.533232 0,0 0.367675,-0.499301 0.05007,-2.289262 -0.185605,-1.04602 -0.286208,-2.107044 -0.46631,-1.753554 z"
     style="fill:#808080;stroke:none;stroke-width:0.0619126px;stroke-linecap:butt;stroke-linejoin:miter;stroke-opacity:1" /><path
     style="fill:#999999;stroke:none;stroke-width:0.0619126px;stroke-linecap:butt;stroke-linejoin:miter;stroke-opacity:1"
     d="m 49.648235,21.255766 c 0,0 -0.09701,0.173305 -0.202585,0.439122 -0.105579,0.265817 -0.21973,0.624145 -0.329441,0.99419 -0.109713,0.370044 -0.19613,0.751805 -0.208529,1.064488 -0.01239,0.312682 0.05236,0.589286 0.238719,0.683017 0.311109,0.114957 0.549349,-0.02417 0.674768,-0.289681 0.124413,-0.376476 0.171383,-0.466526 0.109952,-1.041014 -0.05231,-0.489197 -0.06132,-0.698726 -0.282882,-1.850122 z"
     id="path1174-7" /><path
     id="path1202"
     d="m 37.326437,66.277249 c 0,0 -1.385291,1.965723 -1.32338,4.194572 0,0 -0.015,1.135139 1.323797,0.884797 0,0 0.874461,-0.06173 0.911357,-1.440737 0.05222,-1.95169 -0.674055,-3.638632 -0.911772,-3.638632 z"
     style="fill:#ffffff;stroke:#666666;stroke-width:0.117;stroke-linecap:butt;stroke-linejoin:miter;stroke-miterlimit:4;stroke-dasharray:none;stroke-opacity:1" /><path
     style="display:inline;fill:#ffffff;stroke:#666666;stroke-width:0.117;stroke-linecap:butt;stroke-linejoin:miter;stroke-miterlimit:4;stroke-dasharray:none;stroke-opacity:1"
     d="m 58.396937,95.500864 c 0,0 -1.133704,1.618647 -1.083036,3.453961 0,0 -0.01227,0.934709 1.083378,0.728573 0,0 0.715647,-0.05083 0.745843,-1.186354 0.04274,-1.607092 -0.551638,-2.99618 -0.746182,-2.99618 z"
     id="path1202-5" /><path
     id="path1202-5-3"
     d="m 92.915787,98.269918 c 0,0 -1.225822,1.745732 -1.171037,3.725132 0,0 -0.01327,1.00809 1.171407,0.78578 0,0 0.773796,-0.0548 0.806446,-1.2795 0.04621,-1.733263 -0.596461,-3.231412 -0.806812,-3.231412 z"
     style="display:inline;fill:#ffffff;stroke:#666666;stroke-width:0.117;stroke-linecap:butt;stroke-linejoin:miter;stroke-miterlimit:4;stroke-dasharray:none;stroke-opacity:1" /><path
     style="display:inline;fill:#ffffff;stroke:#666666;stroke-width:0.117;stroke-linecap:butt;stroke-linejoin:miter;stroke-miterlimit:4;stroke-dasharray:none;stroke-opacity:1"
     d="m 119.25658,92.372754 c 0,0 -1.34067,1.904175 -1.28076,4.063226 0,0 -0.0145,1.09959 1.28116,0.8571 0,0 0.8463,-0.0598 0.88201,-1.39563 0.0505,-1.890575 -0.65235,-3.524696 -0.88241,-3.524696 z"
     id="path1202-5-3-5" /><path
     style="display:inline;fill:#ffffff;stroke:#666666;stroke-width:0.117;stroke-linecap:butt;stroke-linejoin:miter;stroke-miterlimit:4;stroke-dasharray:none;stroke-opacity:1"
     d="m 147.06719,72.843979 c 0,0 -1.83834,2.590744 -1.75619,5.528261 0,0 -0.0199,1.496051 1.75675,1.166133 0,0 1.16045,-0.08133 1.20942,-1.898835 0.0693,-2.572239 -0.89451,-4.795559 -1.20998,-4.795559 z"
     id="path1202-5-3-6" /><path
     id="path1057"
     style="font-size:26.6667px;line-height:10px;font-family:'Patua One';-inkscape-font-specification:'Patua One';letter-spacing:0px;word-spacing:0px;fill:#ffffff;stroke:#808080;stroke-width:0.3;stroke-miterlimit:4;stroke-dasharray:none;stroke-opacity:1"
     d="m 34.120658,45.394279 q -1.813336,0 -2.82667,1.386669 -0.986668,1.386668 -0.986668,4.826673 0,6.586675 3.626671,6.586675 1.440002,0 2.560003,-0.453334 v -3.013337 q -1.226668,-0.400001 -1.680002,-0.986668 l 0.266667,-2.10667 h 6.240008 l 0.266667,2.10667 q -0.346667,0.426667 -1.253335,0.826667 v 4.93334 q -1.280001,0.933334 -2.82667,1.333335 -1.520002,0.373334 -3.813338,0.373334 -3.813338,0 -5.600007,-2.160003 -1.786669,-2.186669 -1.786669,-7.066676 0,-4.906672 2.106669,-7.253342 2.133336,-2.34667 5.813341,-2.34667 3.706671,0 6.053341,1.680002 0,0.160001 0,0.613335 0,0.453333 -0.186667,1.546668 -0.186667,1.093335 -0.533334,1.786669 h -2.453337 q -0.4,-0.746668 -0.533334,-2.213336 -1.146668,-0.400001 -2.453336,-0.400001 z" /><path
     id="path1059"
     style="font-size:26.6667px;line-height:10px;font-family:'Patua One';-inkscape-font-specification:'Patua One';letter-spacing:0px;word-spacing:0px;fill:#ffffff;stroke:#808080;stroke-width:0.3;stroke-miterlimit:4;stroke-dasharray:none;stroke-opacity:1"
     d="m 57.320658,47.980949 q 0,1.813336 -1.146668,3.040004 -1.120001,1.226668 -2.82667,1.866669 1.333335,0.560001 1.760002,1.360002 l 1.946669,3.706671 q 1.253335,0.426667 1.706669,0.986668 l -0.266667,2.053336 H 53.987321 L 50.92065,54.460958 Q 50.493983,53.47429 49.933982,53.47429 h -1.733335 v 4.266672 q 1.946669,0.426667 2.42667,1.040001 l -0.266667,2.213336 h -7.20001 l -0.266667,-2.213336 q 0.346668,-0.453334 1.466669,-0.880001 V 45.71428 q -1.093335,-0.400001 -1.466669,-0.906668 l 0.266667,-2.213336 h 6.800009 q 3.733338,0.05333 5.546674,1.200001 1.813335,1.146669 1.813335,4.186672 z m -7.546676,-2.480003 h -1.573335 v 5.066673 h 1.520002 q 1.813335,0 2.693336,-0.533334 0.906668,-0.56 0.906668,-1.973336 0,-1.413335 -0.906668,-1.973335 -0.906667,-0.586668 -2.640003,-0.586668 z" /><path
     id="path1061"
     style="font-size:26.6667px;line-height:10px;font-family:'Patua One';-inkscape-font-specification:'Patua One';letter-spacing:0px;word-spacing:0px;fill:#ffffff;stroke:#808080;stroke-width:0.3;stroke-miterlimit:4;stroke-dasharray:none;stroke-opacity:1"
     d="m 69.187295,42.460942 5.306674,15.386686 q 1.120001,0.400001 1.573335,0.933335 l -0.266667,2.213336 h -6.240008 l -0.266667,-2.213336 q 0.32,-0.426667 1.280002,-0.800001 l -0.720001,-2.240003 h -5.33334 l -0.666668,2.160003 q 0.933335,0.373334 1.386669,0.880001 l -0.266667,2.213336 h -6.080008 l -0.266667,-2.213336 q 0.48,-0.613334 1.786669,-1.013335 l 5.120006,-15.306686 z m -2.213336,3.733338 q 0,1.626669 -0.666667,3.786672 l -1.040002,3.306671 h 3.813338 L 68.067294,50.034285 Q 67.45396,48.167616 67.37396,46.647614 L 67.34729,46.19428 Z" /><path
     id="path1063"
     style="font-size:26.6667px;line-height:10px;font-family:'Patua One';-inkscape-font-specification:'Patua One';letter-spacing:0px;word-spacing:0px;fill:#ffffff;stroke:#808080;stroke-width:0.3;stroke-miterlimit:4;stroke-dasharray:none;stroke-opacity:1"
     d="m 89.347245,42.620943 v 3.813338 l -1.680003,0.213333 q -0.346667,-0.266667 -0.666667,-1.120001 h -3.200004 v 12.373349 q 1.066668,0.426667 1.466668,0.880001 l -0.266667,2.213336 h -6.240007 l -0.266667,-2.213336 q 0.346667,-0.453334 1.466668,-0.880001 V 45.527613 h -3.200004 q -0.32,0.853334 -0.666668,1.120001 l -1.680002,-0.213333 v -3.813338 z" /><path
     id="path1065"
     style="font-size:26.6667px;line-height:10px;font-family:'Patua One';-inkscape-font-specification:'Patua One';letter-spacing:0px;word-spacing:0px;fill:#ffffff;stroke:#808080;stroke-width:0.3;stroke-miterlimit:4;stroke-dasharray:none;stroke-opacity:1"
     d="m 104.70722,42.620943 v 3.813338 l -1.68,0.213333 q -0.34667,-0.266667 -0.66667,-1.120001 h -3.200001 v 12.373349 q 1.066671,0.426667 1.466671,0.880001 l -0.26667,2.213336 h -6.240008 l -0.266667,-2.213336 q 0.346667,-0.453334 1.466669,-0.880001 V 45.527613 H 92.12054 q -0.320001,0.853334 -0.666668,1.120001 L 89.77387,46.434281 v -3.813338 z" /><path
     id="path1067"
     style="font-size:26.6667px;line-height:10px;font-family:'Patua One';-inkscape-font-specification:'Patua One';letter-spacing:0px;word-spacing:0px;fill:#ffffff;stroke:#808080;stroke-width:0.3;stroke-miterlimit:4;stroke-dasharray:none;stroke-opacity:1"
     d="m 112.28052,42.594276 0.26666,2.213336 q -0.42666,0.506667 -1.46666,0.906668 v 12.186682 q 1.06666,0.426667 1.46666,0.880001 l -0.26666,2.213336 h -6.24001 l -0.26667,-2.213336 q 0.34667,-0.453334 1.46667,-0.880001 V 45.71428 q -1.09333,-0.400001 -1.46667,-0.906668 l 0.26667,-2.213336 z" /><path
     id="path1069"
     style="font-size:26.6667px;line-height:10px;font-family:'Patua One';-inkscape-font-specification:'Patua One';letter-spacing:0px;word-spacing:0px;fill:#ffffff;stroke:#808080;stroke-width:0.3;stroke-miterlimit:4;stroke-dasharray:none;stroke-opacity:1"
     d="m 118.54716,50.940953 v 7.013342 q 0.98667,0.373334 1.46667,0.986668 l -0.26667,2.053336 h -5.22667 l -0.26667,-2.053336 q 0.48,-0.613334 1.46667,-0.986668 V 45.63428 q -1.09333,-0.400001 -1.52,-0.986668 l 0.26667,-2.053336 h 5.49334 l 5.30667,10.34668 q 0.58667,1.120001 1.14667,2.98667 l 0.18667,0.640001 0.29333,-0.106667 q -0.37333,-2.320003 -0.37333,-3.893338 v -6.906676 q -0.96001,-0.373333 -1.46667,-1.013334 l 0.26666,-2.053336 h 5.22668 l 0.26666,2.053336 q -0.50666,0.640001 -1.46666,1.013334 v 15.333353 h -4.18668 l -5.36,-10.42668 q -0.58667,-1.120001 -1.14667,-3.013337 l -0.18667,-0.613334 -0.29333,0.106667 q 0.37333,2.320003 0.37333,3.893338 z" /><path
     id="path1071"
     style="font-size:26.6667px;line-height:10px;font-family:'Patua One';-inkscape-font-specification:'Patua One';letter-spacing:0px;word-spacing:0px;fill:#ffffff;stroke:#808080;stroke-width:0.3;stroke-miterlimit:4;stroke-dasharray:none;stroke-opacity:1"
     d="m 140.04049,45.394279 q -1.81334,0 -2.82667,1.386669 -0.98667,1.386668 -0.98667,4.826673 0,6.586675 3.62667,6.586675 1.44001,0 2.56001,-0.453334 v -3.013337 q -1.22667,-0.400001 -1.68001,-0.986668 l 0.26667,-2.10667 h 6.24001 l 0.26667,2.10667 q -0.34667,0.426667 -1.25334,0.826667 v 4.93334 q -1.28,0.933334 -2.82667,1.333335 -1.52,0.373334 -3.81334,0.373334 -3.81333,0 -5.6,-2.160003 -1.78667,-2.186669 -1.78667,-7.066676 0,-4.906672 2.10667,-7.253342 2.13333,-2.34667 5.81334,-2.34667 3.70667,0 6.05334,1.680002 0,0.160001 0,0.613335 0,0.453333 -0.18667,1.546668 -0.18667,1.093335 -0.53333,1.786669 h -2.45334 q -0.4,-0.746668 -0.53333,-2.213336 -1.14667,-0.400001 -2.45334,-0.400001 z" /><path
     id="path1073"
     style="font-size:26.6667px;line-height:10px;font-family:'Patua One';-inkscape-font-specification:'Patua One';letter-spacing:0px;word-spacing:0px;fill:#ffffff;stroke:#808080;stroke-width:0.3;stroke-miterlimit:4;stroke-dasharray:none;stroke-opacity:1"
     d="m 157.02715,45.500946 q -0.90667,-0.24 -1.89334,-0.24 -0.98666,0 -1.6,0.506667 -0.58667,0.480001 -0.58667,1.386669 0,0.880001 0.45334,1.386668 0.45333,0.506667 1.78667,0.880001 l 2.37333,0.693334 q 1.92001,0.560001 3.04001,1.760003 1.14667,1.173334 1.14667,3.466671 0,2.720003 -1.97334,4.293338 -1.94667,1.573336 -4.85334,1.573336 -1.6,0 -3.30667,-0.400001 -1.68,-0.426667 -2.8,-1.173335 0,-0.16 0,-0.613334 0,-0.453334 0.18666,-1.546668 0.18667,-1.093335 0.53334,-1.786669 h 2.53333 q 0.42667,0.826667 0.50667,2.213336 0.93334,0.4 2.16,0.4 1.25334,0 2.05334,-0.586667 0.8,-0.586667 0.8,-1.680002 0,-0.506667 -0.08,-0.826668 -0.08,-0.346667 -0.50667,-0.720001 -0.4,-0.4 -1.17333,-0.640001 l -2.74667,-0.800001 q -4.18667,-1.200001 -4.18667,-5.33334 0,-2.426669 1.76,-3.866671 1.76,-1.466669 4.58667,-1.466669 2.85334,0 5.57334,1.280002 0,0.16 0,0.613334 0,0.453334 -0.18667,1.546669 -0.18666,1.093334 -0.53333,1.786669 h -2.53334 q -0.45333,-0.640001 -0.53333,-2.10667 z" /><path
     id="path1076"
     style="font-size:26.6667px;line-height:10px;font-family:'Patua One';-inkscape-font-specification:'Patua One';letter-spacing:0px;word-spacing:0px;fill:#ffffff;stroke:#808080;stroke-width:0.3;stroke-miterlimit:4;stroke-dasharray:none;stroke-opacity:1"
     d="m 63.79614,78.061723 q 0,-1.06666 0.186667,-3.30667 l 0.05333,-0.64 -0.266667,-0.0267 q -0.613334,2.26666 -1.066668,3.6 l -3.546671,10.42668 H 55.60946 l -3.733338,-10.42668 q -0.506667,-1.2 -0.906668,-2.98667 l -0.16,-0.61333 -0.266667,0.0267 q 0.24,2.37334 0.24,3.94667 v 7.01335 q 0.986668,0.37333 1.466669,0.98666 l -0.266667,2.05334 h -5.226671 l -0.266667,-2.05334 q 0.480001,-0.61333 1.466669,-0.98666 v -12.32002 q -1.093335,-0.4 -1.520002,-0.98667 l 0.266667,-2.05333 h 6.080008 l 3.893338,10.74668 q 0.746668,1.76 0.960001,3.22667 l 0.08,0.45333 h 0.373334 q 0.106667,-1.62667 0.960001,-3.68 l 3.706672,-10.74668 h 5.973341 l 0.266667,2.05333 q -0.426668,0.58667 -1.520002,0.98667 v 12.21335 q 1.040001,0.4 1.466668,0.93333 l -0.266667,2.21334 h -6.080007 l -0.266667,-2.18667 q 0.426667,-0.53333 1.466668,-0.93333 z" /><path
     id="path1078"
     style="font-size:26.6667px;line-height:10px;font-family:'Patua One';-inkscape-font-specification:'Patua One';letter-spacing:0px;word-spacing:0px;fill:#ffffff;stroke:#808080;stroke-width:0.3;stroke-miterlimit:4;stroke-dasharray:none;stroke-opacity:1"
     d="m 78.382813,68.488383 q -1.573335,0 -2.426669,-0.64 -0.826668,-0.64 -0.826668,-2.21334 0,-1.57333 0.853334,-2.21334 0.853335,-0.66666 2.400003,-0.66666 3.333338,0 3.333338,2.90667 0,2.82667 -3.333338,2.82667 z m -1.520001,-2.85334 q 0,1.36 1.546668,1.36 1.573335,0 1.573335,-1.36 0,-1.41333 -1.573335,-1.41333 -1.546668,0 -1.546668,1.41333 z m 3.360004,3.94667 5.306673,15.38669 q 1.120002,0.4 1.573335,0.93333 l -0.266667,2.21334 H 80.59615 l -0.266667,-2.21334 q 0.32,-0.42666 1.280001,-0.8 l -0.720001,-2.24 h -5.33334 l -0.666667,2.16 q 0.933334,0.37334 1.386668,0.88 l -0.266667,2.21334 h -6.080008 l -0.266667,-2.21334 q 0.480001,-0.61333 1.786669,-1.01333 l 5.120007,-15.30669 z m -2.213336,3.73334 q 0,1.62667 -0.666668,3.78667 l -1.040001,3.30667 h 3.813338 l -1.013335,-3.25333 q -0.613334,-1.86667 -0.693334,-3.38668 l -0.02667,-0.45333 z" /><path
     id="path1080"
     style="font-size:26.6667px;line-height:10px;font-family:'Patua One';-inkscape-font-specification:'Patua One';letter-spacing:0px;word-spacing:0px;fill:#ffffff;stroke:#808080;stroke-width:0.3;stroke-miterlimit:4;stroke-dasharray:none;stroke-opacity:1"
     d="M 100.35614,88.115073 H 88.142788 l -0.266667,-2.21334 q 0.346667,-0.45333 1.466668,-0.88 v -12.18668 q -1.093335,-0.4 -1.466668,-0.90667 l 0.266667,-2.21333 h 6.240008 l 0.266667,2.21333 q -0.426668,0.50667 -1.466669,0.90667 v 12.37335 h 4.213339 q 0.346667,-1.38667 0.986668,-1.97334 l 1.973339,0.24 z" /><path
     id="path1082"
     style="font-size:26.6667px;line-height:10px;font-family:'Patua One';-inkscape-font-specification:'Patua One';letter-spacing:0px;word-spacing:0px;fill:#ffffff;stroke:#808080;stroke-width:0.3;stroke-miterlimit:4;stroke-dasharray:none;stroke-opacity:1"
     d="m 113.90279,88.115073 h -12.37335 l -0.26667,-2.21334 q 0.34667,-0.45333 1.46667,-0.88 v -12.18668 q -1.09333,-0.4 -1.46667,-0.90667 l 0.26667,-2.21333 h 12.16002 v 4.64 l -1.97334,0.24 q -0.61333,-0.53333 -0.98666,-1.97333 h -4.16001 v 4.58667 h 3.70667 q 0.32,-0.8 0.66667,-1.12 l 1.68,0.18666 v 4.74668 l -1.68,0.21333 q -0.34667,-0.26667 -0.66667,-1.12 h -3.70667 v 5.09334 h 4.37334 q 0.34667,-1.38667 0.98667,-1.97334 l 1.97333,0.24 z" /><path
     id="path1084"
     style="font-size:26.6667px;line-height:10px;font-family:'Patua One';-inkscape-font-specification:'Patua One';letter-spacing:0px;word-spacing:0px;fill:#ffffff;stroke:#808080;stroke-width:0.3;stroke-miterlimit:4;stroke-dasharray:none;stroke-opacity:1"
     d="m 130.0628,75.101723 q 0,1.81334 -1.14667,3.04 -1.12,1.22667 -2.82667,1.86667 1.33333,0.56 1.76,1.36 l 1.94667,3.70668 q 1.25334,0.42666 1.70667,0.98666 l -0.26667,2.05334 h -4.50667 l -3.06667,-6.53334 q -0.42667,-0.98667 -0.98667,-0.98667 h -1.73333 v 4.26667 q 1.94667,0.42667 2.42667,1.04 l -0.26667,2.21334 h -7.20001 l -0.26667,-2.21334 q 0.34667,-0.45333 1.46667,-0.88 v -12.18668 q -1.09333,-0.4 -1.46667,-0.90667 l 0.26667,-2.21333 h 6.80001 q 3.73334,0.0533 5.54667,1.2 1.81334,1.14667 1.81334,4.18667 z m -7.54668,-2.48 h -1.57333 v 5.06667 h 1.52 q 1.81333,0 2.69334,-0.53333 0.90666,-0.56001 0.90666,-1.97334 0,-1.41334 -0.90666,-1.97334 -0.90667,-0.58666 -2.64001,-0.58666 z" /><path
     id="path1086"
     style="font-size:26.6667px;line-height:10px;font-family:'Patua One';-inkscape-font-specification:'Patua One';letter-spacing:0px;word-spacing:0px;fill:#ffffff;stroke:#808080;stroke-width:0.3;stroke-miterlimit:4;stroke-dasharray:none;stroke-opacity:1"
     d="m 138.88943,69.715053 0.26667,2.21333 q -0.42667,0.50667 -1.46667,0.90667 v 12.18668 q 1.06667,0.42667 1.46667,0.88 l -0.26667,2.21334 h -6.24001 l -0.26666,-2.21334 q 0.34666,-0.45333 1.46666,-0.88 v -12.18668 q -1.09333,-0.4 -1.46666,-0.90667 l 0.26666,-2.21333 z" /></svg>
